{"title":"HouseofFrankenstein","uid":15043694,"size":710522687,"categoryP":"video","categoryS":"movies","magnet":"?xt=urn:btih:6ee4e9da8ab79232636ceafc296a0c02189f3612&amp;dn=HouseofFrankenstein&amp;tr=udp%3A%2F%2Ftracker.leechers-paradise.org%3A6969&amp;tr=udp%3A%2F%2Fzer0day.ch%3A1337&amp;tr=udp%3A%2F%2Fopen.demonii.com%3A1337&amp;tr=udp%3A%2F%2Ftracker.coppersurfer.tk%3A6969&amp;tr=udp%3A%2F%2Fexodus.desync.com%3A6969","seeders":1,"leechers":0,"uploader":"dascuba","files":1,"time":1466629389,"description":"House of Frankenstein (1944)\r\nApproved | 1h 11min | Fantasy, Horror, Sci-Fi | 1 December 1944 (USA)\r\nAn evil scientist and his hunchbacked assistant escape from prison and encounter Dracula, the Wolf Man and Frankenstein's Monster.\r\nDirector: Erle C. Kenton\r\nWriters: Edward T. Lowe Jr. (screenplay) (as Edward T. Lowe), Curt Siodmak (story)\r\nStars: Boris Karloff, Lon Chaney Jr., J. Carrol Naish |\r\n\r\nGeneral\r\nComplete name                            : HouseofFrankensteinFRANKENSTEIN_Title1.mp4\r\nFormat                                   : MPEG-4\r\nFormat profile                           : Base Media\r\nCodec ID                                 : isom (isom/iso2/avc1/mp41)\r\nFile size                                : 678 MiB\r\nDuration                                 : 1h 10mn\r\nOverall bit rate                         : 1 346 Kbps\r\nMovie name                               : FRANKENSTEIN\r\nGenre                                    : Horror\r\nWriting application                      : Lavf54.6.100\r\n\r\nVideo\r\nID                                       : 1\r\nFormat                                   : AVC\r\nFormat/Info                              : Advanced Video Codec\r\nFormat profile                           :   \r\nFormat settings, CABAC                   : No\r\nFormat settings, ReFrames                : 6 frames\r\nCodec ID                                 : avc1\r\nCodec ID/Info                            : Advanced Video Coding\r\nDuration                                 : 1h 10mn\r\nBit rate                                 : 1 204 Kbps\r\nWidth                                    : 720 pixels\r\nHeight                                   : 540 pixels\r\nDisplay aspect ratio                     : 4:3\r\nFrame rate mode                          : Constant\r\nFrame rate                               : 29.970 (30000/1001) fps\r\nColor space                              : YUV\r\nChroma subsampling                       : 4:2:0\r\nBit depth                                : 8 bits\r\nScan type                                : Progressive\r\nBits/(Pixel*Frame)                       : 0.103\r\nStream size                              : 606 MiB (89%)\r\n\r\nAudio\r\nID                                       : 2\r\nFormat                                   : AAC\r\nFormat/Info                              : Advanced Audio Codec\r\nFormat profile                           : LC\r\nCodec ID                                 : 40\r\nDuration                                 : 1h 10mn\r\nBit rate mode                            : Constant\r\nBit rate                                 : 132 Kbps\r\nChannel(s)                               : 2 channels\r\nChannel positions                        : Front: L R\r\nSampling rate                            : 44.1 KHz\r\nFrame rate                               : 43.066 fps (1024 spf)\r\nCompression mode                         : Lossy\r\nStream size                              : 67.8 MiB (10%)\r\nDefault                                  : Yes\r\nAlternate group                          : 1","torrent":{"xt":"urn:btih:6ee4e9da8ab79232636ceafc296a0c02189f3612","amp;dn":"HouseofFrankenstein","amp;tr":["udp%3A%2F%2Ftracker.leechers-paradise.org%3A6969","udp%3A%2F%2Fzer0day.ch%3A1337","udp%3A%2F%2Fopen.demonii.com%3A1337","udp%3A%2F%2Ftracker.coppersurfer.tk%3A6969","udp%3A%2F%2Fexodus.desync.com%3A6969"],"infoHash":"6ee4e9da8ab79232636ceafc296a0c02189f3612","infoHashBuffer":{"type":"Buffer","data":[110,228,233,218,138,183,146,50,99,108,234,252,41,106,12,2,24,159,54,18]},"announce":[],"urlList":[]}}